<?xml version="1.0" ?><svg data-name="Layer 1" id="Layer_1" viewBox="0 0 64 64" xmlns="http://www.w3.org/2000/svg"><defs><style>.cls-1{fill:#b13fff;}.cls-2{opacity:0.15;}</style></defs><title/><path class="cls-1" d="M39.5,37.25c-1.38-2.69-1-6.1-3.16-8.41a8.51,8.51,0,0,0-4.42-2.41,9.38,9.38,0,0,0-4.36.06,11.54,11.54,0,0,0-5.72,3.71l-.44.53c-.95,1.22-1.73,2.56-2.67,3.8a9.09,9.09,0,0,1-5.64,3.32C10.42,38.41,7,38,5.7,41a6.86,6.86,0,0,0-.51,3.1c.26,6.41,6.44,11.57,12.82,10.1,2.49-.57,4.78-2.14,7.37-2.23a12.76,12.76,0,0,1,6.53,2.11l.52.3c2.87,1.7,5.86,3.72,9.2,3.54,6.12-.32,9.27-8.06,5.86-12.85C45.32,42,41.21,40.59,39.5,37.25Z"/><path class="cls-1" d="M56.35,24.67a6.2,6.2,0,0,0-8.2,3.11L46.23,32a6.2,6.2,0,0,0,11.31,5.09l1.92-4.26A6.2,6.2,0,0,0,56.35,24.67Z"/><path class="cls-1" d="M46.48,22.64l1.92-4.26a6.2,6.2,0,1,0-11.31-5.09l-1.92,4.26a6.2,6.2,0,0,0,11.31,5.09Z"/><path class="cls-1" d="M11,34.2a6.2,6.2,0,0,0,5.71-6.65l-.36-4.66A6.2,6.2,0,0,0,4,23.83l.36,4.66A6.2,6.2,0,0,0,11,34.2Z"/><path class="cls-1" d="M25.21,23.11h0a6.2,6.2,0,0,0,5.71-6.65l-.36-4.66a6.2,6.2,0,1,0-12.37.94l.36,4.66A6.2,6.2,0,0,0,25.21,23.11Z"/><g class="cls-2"><path d="M32.43,54.38c2.87,1.7,5.86,3.72,9.2,3.54,6.12-.32,9.27-8.06,5.86-12.85-2.18-3.06-6.28-4.48-8-7.82-1.38-2.69-1-6.1-3.16-8.41a8.51,8.51,0,0,0-4.42-2.41V54.08Z"/></g><g class="cls-2"><path d="M56.35,24.67a6.2,6.2,0,0,0-8.2,3.11L46.23,32a6.2,6.2,0,0,0,11.31,5.09l1.92-4.26A6.2,6.2,0,0,0,56.35,24.67Z"/></g><g class="cls-2"><path d="M48.4,18.38a6.2,6.2,0,1,0-11.31-5.09l-1.92,4.26a6.2,6.2,0,0,0,11.31,5.09Z"/></g></svg>